<?xml version="1.0" encoding="UTF-8" standalone="no"?>
<svg xmlns="http://www.w3.org/2000/svg" version="1.1" viewBox="0 0 503.48634 31.111147" height="44mm" width="356mm">
  <defs/>
  <g transform="translate(-109.15496,-58.85274)">
    <g transform="matrix(2.0572293,0,0,1.9826263,-11.038962,-132.24999)">
      <path fill="#fff" d="m 90.398437,103.54389 -3.886718,15.625 -19.53125,0 q -9.765625,0 -7.324219,-9.76563 l 2.421875,-9.765622 q 2.441406,-9.765625 12.207031,-9.765625 l 19.53125,0 -1.464844,5.859375 -18.730468,0 q -4.707032,0 -5.878907,4.687502 l -2.03125,8.18359 q -1.171875,4.70703 3.554688,4.70703 l 12.851562,0 2.421875,-9.76562 5.859375,0 z"/>
      <path fill="#fff" d="m 99.695312,113.30951 23.437498,0 -1.46484,5.85938 -29.296876,0 7.304687,-29.296877 29.296879,0 -1.46485,5.859375 -23.4375,0 -1.46484,5.859372 23.4375,0 -1.44531,5.85938 -23.4375,0 -1.464848,5.85937 z"/>
      <path fill="#fff" d="m 150.45703,101.59076 q 4.88281,0 5.625,-2.929685 0.72266,-2.929687 -4.16016,-2.929687 l -12.69531,0 -1.46484,5.859372 12.69531,0 z m -17.07031,17.57813 -5.85938,0 7.30469,-29.296877 19.53125,0 q 9.76563,0 7.57813,8.789062 -2.1875,8.789065 -11.95313,8.789065 l -13.67187,0 -2.92969,11.71875 z"/>
      <path fill="#fff" d="m 190.49609,101.59076 2.92969,-11.699216 5.85938,-0.01953 -7.30469,29.296876 -5.85938,0 2.92969,-11.71875 -17.57812,0 -2.92969,11.71875 -5.85938,0 7.30469,-29.296876 5.85938,0 -2.92969,11.718746 17.57812,0 z"/>
      <path fill="#fff" d="m 206.02344,113.30951 -4.00391,5.85938 -6.38672,0 20.01953,-29.296877 6.36719,0 5.41016,29.296877 -6.36719,0 -1.07422,-5.85938 -13.96484,0 z M 218.89453,107.45014 217,97.235294 l -6.97266,10.214846 8.86719,0 z"/>
      <path fill="#fff" d="m 253.97266,101.59076 q 4.88281,0 5.625,-2.929685 0.72265,-2.929687 -4.16016,-2.929687 l -12.69531,0 -1.46485,5.859372 12.69532,0 z m -11.28907,5.85938 -2.85156,0 -2.92969,11.71875 -5.85937,0 7.30469,-29.296877 19.53125,0 q 9.76562,0 7.57812,8.789062 -2.1875,8.789065 -11.95312,8.789065 l -1.81641,0 10.82031,11.71875 -9.0039,0 -10.82032,-11.71875 z"/>
      <path fill="#fff" d="m 283.75781,95.731388 -11.69922,0 1.44532,-5.859375 29.29687,0 -1.46484,5.859375 -11.71875,0 -5.83985,23.437502 -5.85937,0 5.83984,-23.437502 z"/>
    </g>
  </g>
</svg>
